<?xml version="1.0" encoding="utf-8"?>
<!-- Generator: Adobe Illustrator 26.3.1, SVG Export Plug-In . SVG Version: 6.00 Build 0)  -->
<svg version="1.1" id="레이어_1" xmlns="http://www.w3.org/2000/svg" xmlns:xlink="http://www.w3.org/1999/xlink" x="0px"
	 y="0px" viewBox="0 0 35 35" style="enable-background:new 0 0 35 35;" xml:space="preserve">
<style type="text/css">
	.st0{fill:#DDD9C5;}
</style>
<path class="st0" d="M26.78,0H8.22C3.69,0,0,3.68,0,8.22v18.56C0,31.32,3.69,35,8.22,35h18.56c4.54,0,8.22-3.68,8.22-8.22V8.22
	C35,3.68,31.32,0,26.78,0z M17.5,28.63c-6.15,0-11.13-4.98-11.13-11.13c0-6.15,4.98-11.13,11.13-11.13s11.13,4.98,11.13,11.13
	C28.63,23.64,23.65,28.63,17.5,28.63z M29,8.54c-1.43,0-2.6-1.16-2.6-2.59c0-1.43,1.16-2.59,2.6-2.59c1.43,0,2.59,1.16,2.59,2.59
	C31.6,7.38,30.44,8.54,29,8.54z"/>
<path class="st0" d="M17.71,13.2c-2.58,0-4.66,2.09-4.66,4.67c0,2.58,2.09,4.66,4.66,4.66c2.58,0,4.67-2.09,4.67-4.66
	C22.38,15.29,20.29,13.2,17.71,13.2z"/>
</svg>
