<svg xmlns="http://www.w3.org/2000/svg" viewBox="0 0 284.46 282.2"><defs><style>.cls-1{fill:#3c5da9;}</style></defs><title>Asset 1</title><g id="Layer_2" data-name="Layer 2"><g id="Layer_1-2" data-name="Layer 1"><path class="cls-1" d="M225.83,0H58.64A58.81,58.81,0,0,0,0,58.64V223.56A58.81,58.81,0,0,0,58.64,282.2h93.23V174.53H115.6v-44.2h36.27V91.8c0-65.73,88.39-47.6,88.39-47.6V82.73H217.6c-21.81,0-20.4,20.4-20.4,20.4v27.2h43.06l-5.66,44.2H197.2V282.2h28.63a58.81,58.81,0,0,0,58.63-58.64V58.64A58.81,58.81,0,0,0,225.83,0Z"/></g></g></svg>