<svg xmlns="http://www.w3.org/2000/svg" viewBox="0 0 183.96 128.77"><defs><style>.cls-1{fill:#ed2224;}</style></defs><title>Asset 1</title><g id="Layer_2" data-name="Layer 2"><g id="Layer_1-2" data-name="Layer 1"><path class="cls-1" d="M180.11,20.11A23,23,0,0,0,163.85,3.85C149.5,0,92,0,92,0S34.45,0,20.11,3.85A23,23,0,0,0,3.84,20.11C0,34.45,0,64.39,0,64.39s0,29.93,3.84,44.27a23.05,23.05,0,0,0,16.27,16.27C34.45,128.77,92,128.77,92,128.77s57.52,0,71.87-3.84a23,23,0,0,0,16.26-16.27C184,94.32,184,64.39,184,64.39S184,34.45,180.11,20.11ZM73.58,92V36.79l47.8,27.6Z"/></g></g></svg>